# xmcd
#
# Track frame offsets: 
#        150
#        11827
#        22278
#        31844
#        44187
#        60611
#        72230
#        88993
#        100943
#        113321
#        128501
#        141920
#        155699
#        175010
#
# Disc length: 2498 seconds
#
# Revision: 0
# Processed by: cddbd v1.5.2PL0 Copyright (c) Steve Scherf et al.
# Submitted via: ExactAudioCopy v0.95b3
#
DISCID=c009c00e
DTITLE=The Seldom Scene - Different Roads
DYEAR=2007
DGENRE=Bluegrass
TTITLE0=Different Roads
TTITLE1=Old Train
TTITLE2=Walk Through This World With Me
TTITLE3=Gardens And Memories
TTITLE4=Wait A Minute
TTITLE5=Rebels 'Ye Rest
TTITLE6=Last Train From Poor Valley
TTITLE7=I've Lost You
TTITLE8=Keep Me From Blowin' Away
TTITLE9=Reason For Being
TTITLE10=If That's The Way You Feel
TTITLE11=Easy Ride From Good Times To The Blues
TTITLE12=Pictures From Life's Other Side
TTITLE13=Pan American
EXTD=
EXTT0=
EXTT1=
EXTT2=
EXTT3=
EXTT4=
EXTT5=
EXTT6=
EXTT7=
EXTT8=
EXTT9=
EXTT10=
EXTT11=
EXTT12=
EXTT13=
PLAYORDER=
